<?xml version="1.0" standalone="no"?>
<!DOCTYPE svg PUBLIC "-//W3C//DTD SVG 20010904//EN"
 "http://www.w3.org/TR/2001/REC-SVG-20010904/DTD/svg10.dtd">
<svg version="1.0" xmlns="http://www.w3.org/2000/svg"
 width="585.000000pt" height="746.000000pt" viewBox="0 0 585.000000 746.000000"
 preserveAspectRatio="xMidYMid meet">

<g transform="translate(0.000000,746.000000) scale(0.100000,-0.100000)"
fill="#717171" stroke="none">
<path d="M815 7418 c-378 -71 -677 -342 -786 -713 l-24 -80 0 -2910 0 -2910
23 -79 c103 -355 382 -621 742 -706 81 -19 119 -20 757 -20 l673 0 2 788 3
787 748 3 747 2 0 -790 0 -790 633 0 c600 0 636 1 717 20 151 36 238 75 356
158 193 136 326 330 392 571 l27 96 0 2855 c0 2721 -1 2859 -18 2940 -41 193
-131 355 -276 501 -134 133 -259 206 -447 261 l-79 23 -2070 1 c-1263 1 -2089
-2 -2120 -8z m4230 -286 c240 -80 417 -265 487 -509 l23 -78 0 -2815 c0 -2308
-2 -2827 -13 -2880 -53 -255 -232 -460 -477 -547 l-80 -28 -542 -3 -543 -3 0
656 0 655 220 0 220 0 0 135 0 135 -1385 0 -1385 0 0 -135 0 -135 180 0 180 0
0 -655 0 -655 -523 0 c-486 0 -529 1 -600 19 -201 52 -368 187 -462 373 -88
175 -80 -122 -80 3053 0 2662 1 2814 18 2886 53 227 237 439 447 514 124 45
54 44 2205 42 l2040 -2 70 -23z"/>
<path d="M3365 6231 c-96 -25 -189 -102 -235 -196 -21 -42 -25 -64 -25 -145 0
-82 4 -103 27 -152 48 -103 144 -176 257 -198 82 -15 603 -13 672 4 194 45
313 237 265 426 -28 111 -98 194 -204 243 -45 21 -60 22 -387 24 -187 1 -353
-2 -370 -6z"/>
<path d="M1775 6216 c-122 -39 -204 -125 -240 -250 -55 -190 73 -392 273 -435
71 -15 593 -15 664 0 116 25 203 92 254 195 26 53 29 69 29 154 0 79 -4 103
-24 142 -37 75 -95 134 -169 170 l-67 33 -340 2 c-254 2 -350 -1 -380 -11z"/>
<path d="M3375 4761 c-96 -25 -190 -103 -235 -196 -35 -72 -39 -190 -11 -267
35 -91 90 -151 179 -195 l76 -38 340 0 c333 0 342 1 398 23 164 66 256 245
214 412 -28 111 -98 194 -204 243 -45 21 -60 22 -387 24 -187 1 -353 -2 -370
-6z"/>
<path d="M1785 4746 c-122 -39 -204 -125 -240 -250 -48 -164 49 -353 213 -417
54 -22 75 -23 350 -27 310 -4 389 3 467 39 61 29 127 97 161 165 26 53 29 69
29 154 0 79 -4 103 -24 142 -37 75 -95 134 -169 170 l-67 33 -340 2 c-254 2
-350 -1 -380 -11z"/>
<path d="M3380 3275 c-145 -46 -251 -209 -237 -363 16 -169 136 -294 307 -322
84 -13 546 -13 629 0 119 20 211 88 267 198 26 51 29 67 29 152 0 79 -4 103
-24 143 -35 71 -104 142 -169 174 l-57 28 -350 2 c-281 2 -359 -1 -395 -12z"/>
<path d="M1820 3271 c-89 -28 -173 -99 -217 -183 -25 -48 -28 -62 -28 -158 0
-91 3 -111 24 -150 59 -113 150 -180 271 -199 82 -14 555 -14 634 -1 119 19
207 84 261 191 88 173 19 386 -153 471 l-67 33 -350 2 c-192 1 -361 -2 -375
-6z"/>
</g>
</svg>
