<?xml version="1.0" standalone="no"?>
<!DOCTYPE svg PUBLIC "-//W3C//DTD SVG 20010904//EN"
 "http://www.w3.org/TR/2001/REC-SVG-20010904/DTD/svg10.dtd">
<svg version="1.0" xmlns="http://www.w3.org/2000/svg"
 width="1080.000000pt" height="1080.000000pt" viewBox="0 0 1080.000000 1080.000000"
 preserveAspectRatio="xMidYMid meet">

<g transform="translate(0.000000,1080.000000) scale(0.100000,-0.100000)"
fill="#717171" stroke="none">
<path d="M3475 9238 c-256 -48 -472 -183 -627 -392 -103 -139 -166 -297 -188
-476 -14 -117 -14 -5552 0 -5670 29 -233 115 -413 279 -583 133 -138 290 -227
491 -278 81 -21 111 -22 635 -27 303 -2 614 -1 692 3 l143 7 2 767 3 766 688
3 687 2 0 -769 0 -769 163 -7 c89 -4 392 -5 672 -3 484 5 514 6 595 27 156 40
240 78 356 159 193 136 326 330 392 571 l27 96 0 2855 c0 2721 -1 2859 -18
2940 -41 193 -131 355 -276 501 -134 133 -259 206 -447 261 l-79 23 -2070 1
c-1263 1 -2089 -2 -2120 -8z m4160 -353 c118 -25 208 -76 305 -174 96 -96 148
-183 177 -297 17 -65 18 -225 18 -2884 0 -2692 -1 -2818 -18 -2880 -61 -216
-211 -375 -432 -456 -46 -17 -93 -19 -553 -22 l-502 -3 2 593 3 593 183 3 182
2 0 175 0 175 -1385 0 -1385 0 0 -175 0 -175 160 0 160 0 0 -595 0 -595 -497
0 c-295 0 -516 5 -543 10 -230 52 -420 234 -487 470 -17 62 -18 178 -18 2870
0 2284 2 2817 13 2870 7 36 32 103 54 150 54 114 177 239 288 294 140 69 -3
64 2205 65 1723 1 2010 -1 2070 -14z"/>
<path d="M4345 7911 c-46 -11 -87 -36 -122 -73 -120 -124 -62 -352 101 -398
28 -8 142 -10 366 -8 l325 3 45 30 c67 45 104 112 108 196 5 84 -19 141 -81
194 -70 60 -105 65 -426 64 -157 -1 -299 -4 -316 -8z"/>
<path d="M5982 7901 c-66 -23 -107 -61 -138 -126 -43 -91 -28 -189 39 -263 75
-81 77 -82 446 -82 309 0 327 1 368 21 89 43 153 160 138 252 -15 85 -61 148
-140 191 -38 20 -55 21 -350 24 -281 2 -315 0 -363 -17z"/>
<path d="M4375 6551 c-46 -11 -87 -36 -122 -73 -120 -124 -62 -352 101 -398
28 -8 142 -10 366 -8 l325 3 45 30 c67 45 104 112 108 196 5 84 -19 141 -81
194 -70 60 -105 65 -426 64 -157 -1 -299 -4 -316 -8z"/>
<path d="M6012 6541 c-66 -23 -107 -61 -138 -126 -43 -91 -28 -189 39 -263 75
-81 77 -82 446 -82 309 0 327 1 368 21 89 43 153 160 138 252 -15 85 -61 148
-140 191 -38 20 -55 21 -350 24 -281 2 -315 0 -363 -17z"/>
<path d="M4405 5221 c-44 -11 -87 -35 -119 -67 -97 -98 -88 -273 20 -362 61
-50 89 -53 440 -50 l321 3 49 30 c68 43 107 108 112 190 2 35 -1 80 -8 100
-16 48 -72 110 -124 138 -39 21 -53 22 -351 24 -170 1 -323 -2 -340 -6z"/>
<path d="M6065 5221 c-108 -27 -185 -126 -185 -237 0 -65 19 -114 63 -162 75
-81 77 -82 443 -82 l320 0 55 28 c177 90 182 331 8 427 l-54 30 -310 2 c-170
1 -323 -2 -340 -6z"/>
</g>
</svg>
